<?xml version="1.0" standalone="no"?>
<!DOCTYPE svg PUBLIC "-//W3C//DTD SVG 20010904//EN"
 "http://www.w3.org/TR/2001/REC-SVG-20010904/DTD/svg10.dtd">
<svg version="1.0" xmlns="http://www.w3.org/2000/svg"
 width="48.000000pt" height="43.000000pt" viewBox="0 0 48.000000 43.000000"
 preserveAspectRatio="xMidYMid meet">

<g transform="translate(0.000000,43.000000) scale(0.100000,-0.100000)"
fill="#000000" stroke="none">
<path d="M260 385 c-10 -13 -5 -23 30 -63 24 -26 49 -52 57 -59 8 -6 12 -17 8
-23 -6 -9 -50 -10 -171 -5 l-164 7 0 -26 0 -26 170 0 c136 0 170 -3 170 -14 0
-7 -27 -39 -61 -70 -58 -54 -68 -75 -41 -84 13 -4 202 175 202 191 0 11 -170
187 -181 187 -3 0 -12 -7 -19 -15z"/>
</g>
</svg>
